<?xml version="1.0" encoding="UTF-8" standalone="no"?>
<!-- Generator: Adobe Illustrator 16.0.0, SVG Export Plug-In . SVG Version: 6.00 Build 0)  -->

<svg
   xmlns:dc="http://purl.org/dc/elements/1.1/"
   xmlns:cc="http://creativecommons.org/ns#"
   xmlns:rdf="http://www.w3.org/1999/02/22-rdf-syntax-ns#"
   xmlns:svg="http://www.w3.org/2000/svg"
   xmlns="http://www.w3.org/2000/svg"
   xmlns:sodipodi="http://sodipodi.sourceforge.net/DTD/sodipodi-0.dtd"
   xmlns:inkscape="http://www.inkscape.org/namespaces/inkscape"
   version="1.1"
   id="Layer_1"
   x="0px"
   y="0px"
   width="100"
   height="47"
   viewBox="43.167 126.5 100 47"
   enable-background="new 43.167 126.5 260.667 122.667"
   xml:space="preserve"
   sodipodi:docname="HBO_Max_Logo.svg"
   inkscape:version="0.92.4 (5da689c313, 2019-01-14)"><title
   id="title853">HBO Max Logo</title><metadata
   id="metadata45"><rdf:RDF><cc:Work
       rdf:about=""><dc:format>image/svg+xml</dc:format><dc:type
         rdf:resource="http://purl.org/dc/dcmitype/StillImage" /><dc:title>HBO Max Logo</dc:title><cc:license
         rdf:resource="http://scripts.sil.org/OFL" /></cc:Work><cc:License
       rdf:about="http://scripts.sil.org/OFL"><cc:permits
         rdf:resource="http://scripts.sil.org/pub/OFL/Reproduction" /><cc:permits
         rdf:resource="http://scripts.sil.org/pub/OFL/Distribution" /><cc:permits
         rdf:resource="http://scripts.sil.org/pub/OFL/Embedding" /><cc:permits
         rdf:resource="http://scripts.sil.org/pub/OFL/DerivativeWorks" /><cc:requires
         rdf:resource="http://scripts.sil.org/pub/OFL/Notice" /><cc:requires
         rdf:resource="http://scripts.sil.org/pub/OFL/Attribution" /><cc:requires
         rdf:resource="http://scripts.sil.org/pub/OFL/ShareAlike" /><cc:requires
         rdf:resource="http://scripts.sil.org/pub/OFL/DerivativeRenaming" /><cc:requires
         rdf:resource="http://scripts.sil.org/pub/OFL/BundlingWhenSelling" /></cc:License></rdf:RDF></metadata><defs
   id="defs43" /><sodipodi:namedview
   pagecolor="#ffffff"
   bordercolor="#666666"
   borderopacity="1"
   objecttolerance="10"
   gridtolerance="10"
   guidetolerance="10"
   inkscape:pageopacity="0"
   inkscape:pageshadow="2"
   inkscape:window-width="1366"
   inkscape:window-height="705"
   id="namedview41"
   showgrid="false"
   inkscape:showpageshadow="false"
   inkscape:zoom="6.6165025"
   inkscape:cx="38.336871"
   inkscape:cy="32.228026"
   inkscape:window-x="-8"
   inkscape:window-y="-8"
   inkscape:window-maximized="1"
   inkscape:current-layer="Layer_1" />
<g
   id="g38"
   transform="matrix(0.41622078,0,0,0.41622078,24.343567,71.629571)">
	
		<linearGradient
   id="SVGID_1_"
   gradientUnits="userSpaceOnUse"
   x1="286.09769"
   y1="740.30469"
   x2="762.38397"
   y2="738.92682"
   gradientTransform="matrix(0.5,0,0,0.5,-97.25,-155.75)">
		<stop
   offset="0"
   style="stop-color:#2531C8"
   id="stop2" />
		<stop
   offset="0.2646"
   style="stop-color:#009EFF"
   id="stop4" />
		<stop
   offset="0.4123"
   style="stop-color:#6868E2"
   id="stop6" />
		<stop
   offset="0.695"
   style="stop-color:#987DF9"
   id="stop8" />
		<stop
   offset="0.8565"
   style="stop-color:#9C64B2"
   id="stop10" />
		<stop
   offset="0.9834"
   style="stop-color:#E84057"
   id="stop12" />
	</linearGradient>
	<path
   d="M 281.1,231.743 251.159,213.849 281.1,195.955 c 2.59,-1.53 3.413,-4.866 1.883,-7.456 -1.53,-2.59 -4.866,-3.415 -7.456,-1.884 l -34.924,20.916 -34.963,-20.916 c -2.59,-1.531 -5.887,-0.707 -7.456,1.884 -1.531,2.59 -0.707,5.886 1.884,7.456 l 29.94,17.894 -29.94,17.894 c -2.59,1.53 -3.415,4.866 -1.884,7.456 1.02,1.688 2.825,2.629 4.67,2.629 0.941,0 1.923,-0.235 2.786,-0.785 l 34.924,-20.915 34.924,20.915 c 0.863,0.511 1.845,0.785 2.786,0.785 1.845,0 3.649,-0.941 4.67,-2.629 1.569,-2.59 0.706,-5.926 -1.844,-7.456 z"
   id="path15"
   style="fill:url(#SVGID_1_)"
   inkscape:connector-curvature="0" />
	<path
   d="m 109.617,162.562 c 2.551,0 4.63,-2.08 4.63,-4.63 0,-2.55 -2.08,-4.63 -4.63,-4.63 -2.55,0 -4.63,2.08 -4.63,4.63 0,2.55 2.079,4.63 4.63,4.63 z"
   id="path17"
   inkscape:connector-curvature="0" />
	<path
   d="m 66.529297,19.267578 c -5.297,0 -9.810985,3.414109 -11.458985,8.16211 0.079,-0.471001 0.08008,-0.98125 0.08008,-1.53125 0,-1.766 -1.020657,-3.688985 -2.472657,-4.708985 -1.334,-0.981 -2.707468,-1.570312 -4.355468,-1.570312 H 37.804688 v 23.976562 h 9.849609 c 1.962,0 3.609875,-0.705875 5.296875,-1.921875 1.53,-1.099 2.511719,-3.06225 2.511719,-4.90625 v -0.27539 c 1.923,4.199 6.161343,7.103515 11.027343,7.103515 6.71,0 12.164063,-5.454062 12.164063,-12.164062 -0.001,-6.749 -5.415,-12.164063 -12.125,-12.164063 z m -47.324219,0.275391 v 24.052734 h 6.082031 V 34.21875 h 4.984375 v 9.376953 h 6.199219 V 19.542969 h -6.199219 v 8.867187 h -4.945312 v -8.867187 z m 24.759766,5.257812 h 2.589844 c 1.256,0 2.589843,0.234688 2.589843,1.804688 0.078,1.452 -0.784718,2.314453 -2.511719,2.314453 h -2.628906 z m 22.484375,0.3125 c 3.493,0 6.318359,2.82536 6.318359,6.31836 0,3.492 -2.825359,6.318359 -6.318359,6.318359 -3.492,0 -6.316406,-2.826359 -6.316407,-6.318359 0,-3.493 2.824407,-6.31836 6.316407,-6.31836 z m -11.810547,3.962891 c -0.157,0.785 -0.236328,1.571469 -0.236328,2.355469 0,0.55 0.04114,1.098437 0.11914,1.648437 -0.471,-0.628 -1.138203,-1.215625 -2.158203,-1.765625 1.138,-0.589 1.843391,-1.296281 2.275391,-2.238281 z m -10.712891,4.630859 h 2.628907 c 1.569999,0 2.943421,0.394344 2.982421,2.277344 10e-4,0.549 -0.352218,1.3345 -0.824218,1.6875 -0.549,0.432 -1.254875,0.390625 -1.921875,0.390625 h -2.865235 z"
   transform="translate(43.167,126.5)"
   id="path19"
   inkscape:connector-curvature="0" />
	
	
		<linearGradient
   id="SVGID_2_"
   gradientUnits="userSpaceOnUse"
   x1="254.3291"
   y1="611.85553"
   x2="567.6814"
   y2="805.6297"
   gradientTransform="matrix(0.5,0,0,0.5,-97.25,-155.75)">
		<stop
   offset="0"
   style="stop-color:#2531C8"
   id="stop23" />
		<stop
   offset="0.355"
   style="stop-color:#009EFF"
   id="stop25" />
		<stop
   offset="0.58"
   style="stop-color:#6868E2"
   id="stop27" />
		<stop
   offset="1"
   style="stop-color:#987DF9"
   id="stop29" />
	</linearGradient>
	<path
   d="M 127.315,182.065 H 55.151 c -3.807,0 -6.867,-3.1 -6.867,-6.867 v -34.571 c 0,-3.767 3.1,-6.867 6.867,-6.867 h 72.164 c 3.806,0 6.867,3.1 6.867,6.867 v 34.571 c 0.039,3.806 -3.061,6.867 -6.867,6.867 z M 55.151,135.878 c -2.629,0 -4.788,2.158 -4.788,4.788 v 34.571 c 0,2.629 2.158,4.788 4.788,4.788 h 72.164 c 2.629,0 4.787,-2.159 4.787,-4.788 v -34.61 c 0,-2.629 -2.158,-4.788 -4.787,-4.788 H 55.151 Z m 79.07,74.165 v 26.37 c 0,2.982 -2.433,5.415 -5.415,5.415 -2.982,0 -5.415,-2.433 -5.415,-5.415 v -26.37 c 0,-7.377 -6.004,-13.342 -13.342,-13.342 -7.338,0 -13.342,6.004 -13.342,13.342 v 26.37 c 0,2.982 -2.433,5.415 -5.416,5.415 -2.983,0 -5.416,-2.433 -5.416,-5.415 v -26.37 c 0,-7.377 -6.003,-13.342 -13.342,-13.342 -7.338,0 -13.342,6.004 -13.342,13.342 v 26.37 c 0,2.982 -2.433,5.415 -5.415,5.415 -2.982,0 -5.494,-2.433 -5.494,-5.415 v -26.37 c 0,-13.342 10.87,-24.211 24.211,-24.211 7.574,0 14.323,3.493 18.757,8.947 4.434,-5.455 11.223,-8.947 18.757,-8.947 13.384,0 24.214,10.869 24.214,24.211 z m 31.628,-24.211 c 0,0 -0.039,0 0,0 z m 0,55.996 v 0 0 c -0.039,0 0,0 0,0 z m 27.979,-50.542 v 45.127 c 0,2.982 -2.434,5.415 -5.416,5.415 -2.982,0 -5.415,-2.433 -5.415,-5.415 v -1.334 c -0.392,0.51 -2.002,2.472 -5.297,4.159 -3.1,1.452 -6.515,2.354 -10.085,2.59 -0.157,0 -0.353,0.04 -0.51,0.04 -0.314,0 -0.628,0.039 -0.903,0.039 -0.117,0 -0.235,0 -0.353,0 -15.421,0 -27.939,-12.558 -27.939,-27.979 0,-15.421 12.518,-27.979 27.939,-27.979 0.118,0 0.236,0 0.353,0 0.314,0 0.628,0 0.942,0.04 0.157,0 0.313,0 0.509,0.039 3.611,0.235 7.063,1.138 10.164,2.59 3.257,1.688 4.866,3.61 5.219,4.12 v -1.334 c 0,-2.982 2.433,-5.415 5.415,-5.415 2.944,-0.157 5.377,2.275 5.377,5.297 z m -10.87,22.564 c 0,-9.457 -7.691,-17.148 -17.148,-17.148 -9.457,0 -17.148,7.691 -17.148,17.148 0,9.457 7.691,17.148 17.148,17.148 9.457,0 17.148,-7.73 17.148,-17.148 z"
   id="path32"
   style="fill:url(#SVGID_2_)"
   inkscape:connector-curvature="0" />
	
	
</g>
</svg>